/* XPM */
static char *dummy[]={
"64 64 10 1",
". c #000000",
"# c #003333",
"a c #006633",
"f c #006666",
"b c #336633",
"c c #336666",
"d c #339933",
"e c #339966",
"h c #669966",
"g c #66cc66",
"................................................................",
"................................................................",
"................................................................",
"................................................................",
"................................................................",
"...............................##...............................",
"...............................aa...............................",
"..............................bcca..............................",
".............................adeca#.............................",
".............................beeeca.............................",
"............................aeeeecca............................",
"............................aeeeecca#...........................",
"...........................acceeeccca...........................",
"..........................#fcceeecceca..........................",
"..........................accccccceeeb..........................",
".........................aeeccccceeeeea.........................",
"........................adeeeccceeeeeeda........................",
"........................beeeeeceeeeeeeeb........................",
".......................aeeeeeeeeeeeeeeeea.......................",
"......................#beeeeeeeeeeeeeeeed#......................",
"......................aeeeeeeeeeeeeeeeeeeb......................",
".....................aeeeeeeeeeeeeeeeeeeeea.....................",
".....................beeeeeeeeeeeeeeeeeeeeb.....................",
"....................aeeeeeeeeeegeeeeeeeeeeea....................",
"...................adeeeeeeeeeeggeeeeeeeeeeda...................",
"...................beeeeeeeeeeggggeeeeeeeeeeb...................",
"..................aeeeeeeeeeeeggggeeeeeeeeeeea..................",
".................abeeeeeeeeeeggggggeeeeeeeeeeb..................",
".................aeeeeeeeeeehggggggheeeeeeeeeeb.................",
"................adeeeeeeeeeeggggggggeeeeeeeeeeda................",
"................beeeeeeeeeeggggggggggeeeeeeeeeeb................",
"................beeeeeeeeeeggggggggggeeeeeeeeeeb................",
"................aeeeeeeeeeeggggggggggeeeeeeeeeda................",
".................beeeeeeeeegggggggggheeeeeeeeeb.................",
".................adeeeeeeeeeggggggggeeeeeeeeeda.................",
"..................aeeeeeeeeeeggggggeeeeeeeeeeb..................",
"..................abeeeeeeeeeggggggeeeeeeeeeba..................",
"...................aeeeeeeeeeeggggeeeeeeeeeea...................",
"....................beeeeeeeeegggeeeeeeeeeeb....................",
"....................#deeeeeeeeeggeeeeeeeeed#....................",
".....................aeeeeeeeeeeeeeeeeeeeea.....................",
".....................#beeeeeeeeeeeeeeeeeeb#.....................",
"......................aeeeeeeeeeeeeeeeeeea......................",
".......................beeeeeeeeeeeeeeeeb.......................",
".......................adeeeeeeeeeeeeeeda.......................",
"........................aeeeeeeeeeeeeeeb........................",
"........................#beeeeeeeceeeeb#........................",
".........................aeeeeeeccceeea.........................",
"..........................beeeeccccccb..........................",
"..........................adeeecccccca..........................",
"...........................beeceeccca...........................",
"...........................#acceeeca#...........................",
"............................acceeeca............................",
".............................aceeeb.............................",
".............................#aeeda.............................",
"..............................aceb..............................",
"..............................#aba..............................",
"...............................##...............................",
"................................................................",
"................................................................",
"................................................................",
"................................................................",
"................................................................",
"................................................................"};
