/* XPM */
static char *dummy[]={
"16 16 3 1",
". c #000000",
"# c #00ff00",
"a c #999999",
"....######......",
"...#########....",
"..##aaaaaaaa#...",
"..##a#########..",
".###a##########.",
"####a###########",
"####aaaaaaaa####",
"####a###########",
"####a###########",
"####a###########",
".###aaaaaaa####.",
".#########aa###.",
"..############..",
"...##########...",
"....########....",
"......#####....."};
