/* XPM */
static char *dummy[]={
"32 32 3 1",
". c None",
"# c #00ff00",
"a c #808080",
"..............####..............",
"..........############..........",
"........#################.......",
".......###################......",
".....######################.....",
"....########################....",
"...######aaaaaaaa############...",
"...#####aa######aaaaaaaaa#####..",
"..######a#####################..",
".#######a######################.",
"########a######################.",
"#######aa######################.",
"#######a#######################.",
"#######a#######################.",
"#######aaaaaaa##################",
"#######a######aaaaaaaaaa########",
"#######a########################",
"#######a########################",
".######a#######################.",
".######a#######################.",
".######a#######################.",
".######a#######################.",
".######a#######################.",
"..#####aaaaaaaaaaaaaaaaa######..",
"...###########################..",
"...##########################...",
"....########################....",
".....######################.....",
".......###################......",
"........################........",
".........#############..........",
"..............####.............."};
