/* XPM */
static char *dummy[]={
"16 16 7 1",
"b c #006633",
"c c #336633",
"a c #336666",
"e c #339933",
"# c #339966",
"d c #66cc66",
". c #ffffff",
"................",
"................",
".......#a.......",
"......ba#c......",
"......####......",
".....######.....",
".....######.....",
"....###dd###....",
"....###dd##e....",
".....######.....",
".....c####e.....",
"......####......",
".......#a.......",
".......ac.......",
"................",
"................"};
