/* XPM */
static char *dummy[]={
"128 128 3 1",
". c None",
"# c #00ff00",
"a c #808080",
"................................................................................................................................",
"..................................................#######################.......................................................",
"............................................################################....................................................",
"........................................#########################################...............................................",
".......................................#############################################............................................",
"......................................#################################################.........................................",
"....................................#####################################################.......................................",
"..................................#########################################################.....................................",
".................................############################################################...................................",
"...............................###############################################################..................................",
"..............................##################################################################................................",
".............................#####################################################################..............................",
"............................########################################################################............................",
"..........................#############################################################################.........................",
".........................################################################################################.......................",
"........................##################################################################################......................",
"......................#####################################################################################.....................",
".....................#######################################################################################....................",
"...................##########################################################################################...................",
"..................############################################################################################..................",
".................#############################################################################################..................",
"................###############################################################################################.................",
"...............#################################################################################################................",
"..............###################################################################################################...............",
"..............###################################################################################################...............",
".............#####################################################################################################..............",
"............##################aaaaaaaaaaaaaaaaaaaaaaaaaaaaaaaaaaaaaaaaaaaaaaaaaaaaaaaaaaaaaaaaaaaaaa###############.............",
"............##################aaaaaaaaaaaaaaaaaaaaaaaaaaaaaaaaaaaaaaaaaaaaaaaaaaaaaaaaaaaaaaaaaaaaaa################............",
"...........###################aaaaaaaaaaaaaaaaaaaaaaaaaaaaaaaaaaaaaaaaaaaaaaaaaaaaaaaaaaaaaaaaaaaaaa################............",
"...........###################aaaaaaaaaaaaaaaaaaaaaaaaaaaaaaaaaaaaaaaaaaaaaaaaaaaaaaaaaaaaaaaaaaaaaa#################...........",
"..........####################aaaaaaaaaaaaaaaaaaaaaaaaaaaaaaaaaaaaaaaaaaaaaaaaaaaaaaaaaaaaaaaaaaaaaa##################..........",
"..........####################aaaaa###################################################################################..........",
"..........####################aaaaa####################################################################################.........",
".........####################aaaaaa####################################################################################.........",
".........####################aaaaaa####################################################################################.........",
"........#####################aaaaaa#####################################################################################........",
"........#####################aaaaaa######################################################################################.......",
".......######################aaaaaa######################################################################################.......",
".......######################aaaaa#######################################################################################.......",
"......#######################aaaaa########################################################################################......",
".....########################aaaaa########################################################################################......",
".....########################aaaaa########################################################################################......",
".....########################aaaaaa########################################################################################.....",
"....#########################aaaaaa########################################################################################.....",
"....#########################aaaaaa########################################################################################.....",
"...##########################aaaaaa########################################################################################.....",
"...##########################aaaaaa#########################################################################################....",
"...###########################aaaaa#########################################################################################....",
"..############################aaaaa#########################################################################################....",
"..############################aaaaa##########################################################################################...",
"..############################aaaaa##########################################################################################...",
"..############################aaaaa##########################################################################################...",
"..############################aaaaa##########################################################################################...",
"..############################aaaaa###########################################################################################..",
"..############################aaaaa###########################################################################################..",
"..############################aaaaaa##########################################################################################..",
"..############################aaaaaaaaaaaaaaaaaaaaaaaaaaaaaaaaaaa#############################################################..",
"..############################aaaaaaaaaaaaaaaaaaaaaaaaaaaaaaaaaaaaaaaaaaaaaaaaaa##############################################..",
"..############################aaaaaaaaaaaaaaaaaaaaaaaaaaaaaaaaaaaaaaaaaaaaaaaaaaaaaaaaaaaaaaaaaaaa############################..",
"..############################aaaaaaaaaaaaaaaaaaaaaaaaaaaaaaaaaaaaaaaaaaaaaaaaaaaaaaaaaaaaaaaaaaaa############################..",
"..#############################aaaaaaaaaaaaaaaaaaaaaaaaaaaaaaaaaaaaaaaaaaaaaaaaaaaaaaaaaaaaaaaaaaa############################..",
"..#############################aaaaa#########################aaaaaaaaaaaaaaaaaaaaaaaaaaaaaaaaaaaaa############################..",
"..#############################aaaaa#######################################aaaaaaaaaaaaaaaaaaaaaaa############################..",
"..#############################aaaaa##########################################################################################..",
"..#############################aaaaa##########################################################################################..",
"..#############################aaaaa##########################################################################################..",
"..#############################aaaaa##########################################################################################..",
"..#############################aaaaa##########################################################################################..",
"..#############################aaaaa##########################################################################################..",
"..#############################aaaaa##########################################################################################..",
"..#############################aaaaa##########################################################################################..",
"..#############################aaaaa##########################################################################################..",
"..#############################aaaaa##########################################################################################..",
"..#############################aaaaa##########################################################################################..",
"...############################aaaaa#########################################################################################...",
"...############################aaaaa#########################################################################################...",
"...############################aaaaa#########################################################################################...",
"...############################aaaaa#########################################################################################...",
"...############################aaaaa########################################################################################....",
"....###########################aaaaa########################################################################################....",
"....###########################aaaaa########################################################################################....",
"....###########################aaaaa########################################################################################....",
".....##########################aaaaa########################################################################################....",
".....##########################aaaaa#######################################################################################.....",
"......#########################aaaaa#######################################################################################.....",
"......#########################aaaaa#######################################################################################.....",
"......#########################aaaaa######################################################################################......",
"......#########################aaaaa######################################################################################......",
"......#########################aaaaa#####################################################################################.......",
".......########################aaaaa#####################################################################################.......",
"........#######################aaaaaaaaaaaaaaaaaaaaaaaaaaaaaaaaaaaaaaaaaaa##############################################........",
".........######################aaaaaaaaaaaaaaaaaaaaaaaaaaaaaaaaaaaaaaaaaaaaaaaaaaaaaaa##################################........",
".........######################aaaaaaaaaaaaaaaaaaaaaaaaaaaaaaaaaaaaaaaaaaaaaaaaaaaaaaaaaaaaaaaa#########################........",
".........######################aaaaaaaaaaaaaaaaaaaaaaaaaaaaaaaaaaaaaaaaaaaaaaaaaaaaaaaaaaaaaaaa########################.........",
".........######################aaaaaaaaaaaaaaaaaaaaaaaaaaaaaaaaaaaaaaaaaaaaaaaaaaaaaaaaaaaaaaaa########################.........",
"..........#####################aaaaaaa################################aaaaaaaaaaaaaaaaaaaaaaaaa#######################..........",
"..........#######################################################################aaaaaaaaaaaaaa######################...........",
"...........#########################################################################################################............",
"............#######################################################################################################.............",
"............#######################################################################################################.............",
"............######################################################################################################..............",
"............######################################################################################################..............",
".............####################################################################################################...............",
"..............##################################################################################################................",
"...............#################################################################################################................",
"................###############################################################################################.................",
".................#############################################################################################..................",
"..................###########################################################################################...................",
"...................##########################################################################################...................",
"....................########################################################################################....................",
".....................######################################################################################.....................",
"......................####################################################################################......................",
".......................##################################################################################.......................",
".........................###############################################################################........................",
"...........................############################################################################.........................",
"............................##########################################################################..........................",
"..............................#######################################################################...........................",
"...............................####################################################################.............................",
".................................################################################################...............................",
"....................................############################################################................................",
".......................................#######################################################..................................",
".........................................###################################################....................................",
"..........................................#################################################.....................................",
"...........................................#############################################........................................",
".............................................#########################################..........................................",
"..................................................#################################.............................................",
".......................................................##########################...............................................",
"...........................................................###################.................................................."};
