/* XPM */
static char *dummy[]={
"128 128 9 1",
". c #000000",
"# c #003333",
"a c #006633",
"f c #006666",
"e c #336633",
"c c #336666",
"d c #339933",
"b c #339966",
"g c #66cc66",
"................................................................................................................................",
"................................................................................................................................",
"................................................................................................................................",
"................................................................................................................................",
"................................................................................................................................",
"................................................................................................................................",
"................................................................................................................................",
"................................................................................................................................",
"................................................................................................................................",
"................................................................................................................................",
"...............................................................##...............................................................",
"..............................................................####..............................................................",
"..............................................................#aa#..............................................................",
".............................................................#abc##.............................................................",
".............................................................#dbcc##............................................................",
"............................................................#ebbcca#............................................................",
"...........................................................#abbbccc##...........................................................",
"...........................................................#ebbbccca#...........................................................",
"..........................................................#abbbbcccca#..........................................................",
".........................................................##bbbbbccccc##.........................................................",
".........................................................#ebbbbbccccca#.........................................................",
"........................................................#abbbbbbcccccca#........................................................",
".......................................................##acbbbbbccccccf##.......................................................",
".......................................................#accbbbbbccccccca#.......................................................",
"......................................................##ccccbbbbcccccccc##......................................................",
"......................................................#acccccbbbcccccccca#......................................................",
".....................................................#acccccccbbccccccccca#.....................................................",
"....................................................##ccccccccbbcccccccbbba#....................................................",
"....................................................#acccccccccbccccccbbbbe#....................................................",
"...................................................#acccccccccccccccbbbbbbba#...................................................",
"..................................................#adbbccccccccccccbbbbbbbbda#..................................................",
"..................................................#ebbbcccccccccccbbbbbbbbbbe#..................................................",
".................................................#abbbbbcccccccccbbbbbbbbbbbba#.................................................",
"................................................##ebbbbbbcccccccbbbbbbbbbbbbbda#................................................",
"................................................#ebbbbbbbbccccccbbbbbbbbbbbbbbe#................................................",
"...............................................#abbbbbbbbbbcccccbbbbbbbbbbbbbbba#...............................................",
"...............................................#ebbbbbbbbbbbccccbbbbbbbbbbbbbbbe#...............................................",
"..............................................#abbbbbbbbbbbbbcccbbbbbbbbbbbbbbbbe#..............................................",
".............................................#adbbbbbbbbbbbbbcccbbbbbbbbbbbbbbbbda#.............................................",
".............................................#ebbbbbbbbbbbbbbbccbbbbbbbbbbbbbbbbbe#.............................................",
"............................................#abbbbbbbbbbbbbbbbbcbbbbbbbbbbbbbbbbbba#............................................",
"...........................................#aebbbbbbbbbbbbbbbbbbbbbbbbbbbbbbbbbbbbda#...........................................",
"...........................................#ebbbbbbbbbbbbbbbbbbbbbbbbbbbbbbbbbbbbbbe#...........................................",
"..........................................#abbbbbbbbbbbbbbbbbbbbbbbbbbbbbbbbbbbbbbbba#..........................................",
".........................................##ebbbbbbbbbbbbbbbbbbbggbbbbbbbbbbbbbbbbbbbe#..........................................",
".........................................#ebbbbbbbbbbbbbbbbbbbgggbbbbbbbbbbbbbbbbbbbbe#.........................................",
"........................................#adbbbbbbbbbbbbbbbbbbbggggbbbbbbbbbbbbbbbbbbbda#........................................",
"........................................#ebbbbbbbbbbbbbbbbbbbggggggbbbbbbbbbbbbbbbbbbbe#........................................",
".......................................#abbbbbbbbbbbbbbbbbbbgggggggbbbbbbbbbbbbbbbbbbbba#.......................................",
"......................................#aebbbbbbbbbbbbbbbbbbbggggggggbbbbbbbbbbbbbbbbbbbea#......................................",
"......................................#ebbbbbbbbbbbbbbbbbbbggggggggggbbbbbbbbbbbbbbbbbbbe#......................................",
".....................................#abbbbbbbbbbbbbbbbbbbbggggggggggbbbbbbbbbbbbbbbbbbbba#.....................................",
"....................................##ebbbbbbbbbbbbbbbbbbbggggggggggggbbbbbbbbbbbbbbbbbbbe#.....................................",
"....................................#abbbbbbbbbbbbbbbbbbbgggggggggggggbbbbbbbbbbbbbbbbbbbbe#....................................",
"...................................#adbbbbbbbbbbbbbbbbbbbggggggggggggggbbbbbbbbbbbbbbbbbbbda#...................................",
"...................................#ebbbbbbbbbbbbbbbbbbbggggggggggggggggbbbbbbbbbbbbbbbbbbbe#...................................",
"..................................#abbbbbbbbbbbbbbbbbbbgggggggggggggggggbbbbbbbbbbbbbbbbbbbba#..................................",
".................................##ebbbbbbbbbbbbbbbbbbbggggggggggggggggggbbbbbbbbbbbbbbbbbbbea#.................................",
".................................#ebbbbbbbbbbbbbbbbbbbggggggggggggggggggggbbbbbbbbbbbbbbbbbbbe#.................................",
"................................#adbbbbbbbbbbbbbbbbbbbggggggggggggggggggggbbbbbbbbbbbbbbbbbbbba#................................",
"...............................##ebbbbbbbbbbbbbbbbbbbggggggggggggggggggggggbbbbbbbbbbbbbbbbbbbe#................................",
"...............................#ebbbbbbbbbbbbbbbbbbbgggggggggggggggggggggggbbbbbbbbbbbbbbbbbbbbe#...............................",
"...............................#ebbbbbbbbbbbbbbbbbbbggggggggggggggggggggggggbbbbbbbbbbbbbbbbbbbe##..............................",
"...............................#adbbbbbbbbbbbbbbbbbgggggggggggggggggggggggggbbbbbbbbbbbbbbbbbbda#...............................",
"................................#ebbbbbbbbbbbbbbbbbbggggggggggggggggggggggggbbbbbbbbbbbbbbbbbbe##...............................",
"................................##ebbbbbbbbbbbbbbbbbgggggggggggggggggggggggbbbbbbbbbbbbbbbbbbe##................................",
".................................#abbbbbbbbbbbbbbbbbbggggggggggggggggggggggbbbbbbbbbbbbbbbbbba#.................................",
".................................##ebbbbbbbbbbbbbbbbbbggggggggggggggggggggbbbbbbbbbbbbbbbbbbe##.................................",
"..................................#adbbbbbbbbbbbbbbbbbggggggggggggggggggggbbbbbbbbbbbbbbbbbda#..................................",
"...................................#ebbbbbbbbbbbbbbbbbbggggggggggggggggggbbbbbbbbbbbbbbbbbbe##..................................",
"...................................##ebbbbbbbbbbbbbbbbbgggggggggggggggggbbbbbbbbbbbbbbbbbbe##...................................",
"....................................#abbbbbbbbbbbbbbbbbbggggggggggggggggbbbbbbbbbbbbbbbbbba#....................................",
"....................................##ebbbbbbbbbbbbbbbbbbggggggggggggggbbbbbbbbbbbbbbbbbbe##....................................",
".....................................#adbbbbbbbbbbbbbbbbbggggggggggggggbbbbbbbbbbbbbbbbbda#.....................................",
"......................................#ebbbbbbbbbbbbbbbbbbggggggggggggbbbbbbbbbbbbbbbbbbe#......................................",
"......................................##ebbbbbbbbbbbbbbbbbgggggggggggbbbbbbbbbbbbbbbbbbe##......................................",
".......................................#abbbbbbbbbbbbbbbbbbggggggggggbbbbbbbbbbbbbbbbbba#.......................................",
".......................................##ebbbbbbbbbbbbbbbbbbggggggggbbbbbbbbbbbbbbbbbbe##.......................................",
"........................................#adbbbbbbbbbbbbbbbbbggggggggbbbbbbbbbbbbbbbbbda#........................................",
".........................................#abbbbbbbbbbbbbbbbbbggggggbbbbbbbbbbbbbbbbbba#.........................................",
".........................................##ebbbbbbbbbbbbbbbbbgggggbbbbbbbbbbbbbbbbbbe##.........................................",
"..........................................#abbbbbbbbbbbbbbbbbbggggbbbbbbbbbbbbbbbbbba#..........................................",
"...........................................#ebbbbbbbbbbbbbbbbbbggbbbbbbbbbbbbbbbbbbe##..........................................",
"...........................................#adbbbbbbbbbbbbbbbbbggbbbbbbbbbbbbbbbbbda#...........................................",
"............................................#abbbbbbbbbbbbbbbbbbbbbbbbbbbbbbbbbbbba#............................................",
"............................................##ebbbbbbbbbbbbbbbbbbbbbbbbbbbbbbbbbbe##............................................",
".............................................#abbbbbbbbbbbbbbbbbbbbbbbbbbbbbbbbbba#.............................................",
"..............................................#ebbbbbbbbbbbbbbbbcbbbbbbbbbbbbbbbe##.............................................",
"..............................................#adbbbbbbbbbbbbbbbccbbbbbbbbbbbbbda#..............................................",
"...............................................#abbbbbbbbbbbbbbbcccbbbbbbbbbbbba#...............................................",
"...............................................##ebbbbbbbbbbbbbbcccbbbbbbbbbbbe##...............................................",
"................................................#abbbbbbbbbbbbbbccccbbbbbbbbbba#................................................",
".................................................#ebbbbbbbbbbbbbcccccbbbbbbbbe#.................................................",
".................................................##dbbbbbbbbbbbbccccccbbbbbbda#.................................................",
"..................................................#abbbbbbbbbbbbcccccccbbbbba#..................................................",
"..................................................##ebbbbbbbbbbcccccccccbbbe##..................................................",
"...................................................#abbbbbbbbbcccccccccccbba#...................................................",
"....................................................#ebbbbbbbccccccccccccca#....................................................",
"....................................................##dbbbbbccccccccccccca##....................................................",
".....................................................#abbbbcccccbcccccccca#.....................................................",
".....................................................##ebbbcccccbccccccca##.....................................................",
"......................................................#abbccccccbbcccccc##......................................................",
".......................................................#acccccccbbbcccca#.......................................................",
".......................................................##accccccbbbbccf##.......................................................",
"........................................................#accccccbbbbcca#........................................................",
"........................................................##acccccbbbbba##........................................................",
".........................................................##cccccbbbbb##.........................................................",
"..........................................................#accccbbbbe#..........................................................",
"..........................................................##ccccbbbd##..........................................................",
"...........................................................##cccbbba#...........................................................",
"...........................................................##accbbe##...........................................................",
"............................................................##ccbb##............................................................",
".............................................................#acbe#.............................................................",
".............................................................##cc##.............................................................",
"..............................................................##a#..............................................................",
"..............................................................####..............................................................",
"...............................................................##...............................................................",
"................................................................................................................................",
"................................................................................................................................",
"................................................................................................................................",
"................................................................................................................................",
"................................................................................................................................",
"................................................................................................................................",
"................................................................................................................................",
"................................................................................................................................",
"................................................................................................................................",
"................................................................................................................................",
"................................................................................................................................"};
