/* XPM */
static char *dummy[]={
"32 32 7 1",
"# c #006633",
"c c #336633",
"b c #336666",
"d c #339933",
"a c #339966",
"e c #66cc66",
". c #ffffff",
"................................",
"................................",
"................................",
"...............##...............",
"...............ab...............",
"..............baab..............",
".............#baabc.............",
".............bbbaaa.............",
"............daaaaaaa............",
"...........caaaaaaaad...........",
"...........aaaaaaaaaa...........",
"..........daaaaaaaaaad..........",
".........caaaaaaaaaaaac.........",
".........aaaaaaeeaaaaaa.........",
"........daaaaaaeeaaaaaad........",
"........aaaaaaeeeeaaaaaa........",
"........daaaaaeeeeaaaaad........",
".........aaaaaaeeaaaaaa.........",
".........caaaaaeeaaaaac.........",
"..........daaaaaaaaaad..........",
"..........caaaaaaaaaac..........",
"...........daaaaaaaad...........",
"............aaaaaaaa............",
"............caaaaaac............",
".............daabbb.............",
"..............bbab..............",
"..............#bac..............",
"...............cc...............",
"................................",
"................................",
"................................",
"................................"};
