/* XPM */
static char *dummy[]={
"64 64 3 1",
". c None",
"# c #00ff00",
"a c #808080",
"................................................................",
"........................################........................",
"......................######################....................",
"..................############################..................",
"................################################................",
"...............###################################..............",
"..............#####################################.............",
"............#########################################...........",
"...........###########################################..........",
"..........#############################################.........",
".........###############################################........",
"........#################################################.......",
".......##################################################.......",
"......####################################################......",
"......##########aaaaaaaaaaaaaaaaaaaaaaaaaaaaaaaaaaa########.....",
".....###########aaaaaaaaaaaaaaaaaaaaaaaaaaaaaaaaaaa########.....",
"....############aa##########################################....",
"....############aa###########################################...",
"...#############aa###########################################...",
"...#############aa###########################################...",
"...#############aa############################################..",
"..##############aa############################################..",
"..##############aa#############################################.",
"..##############aa#############################################.",
"..##############aa#############################################.",
"..##############aa#############################################.",
"..##############aa#############################################.",
".###############aa#############################################.",
".###############aaa#############################################",
".###############aaa#############################################",
".################aa#############################################",
".################aa#############################################",
".################aaaaaaaaaaaaaaaaaaaaaaaaaaaaa##################",
".################aaaaaaaaaaaaaaaaaaaaaaaaaaaaa##################",
".################aa#############################################",
".################aa#############################################",
".################aa############################################.",
"..###############aa############################################.",
"..###############aa############################################.",
"..###############aa############################################.",
"..###############aa###########################################..",
"..###############aa###########################################..",
"..###############aa###########################################..",
"...##############aa##########################################...",
"...##############aa##########################################...",
"....#############aa##########################################...",
"....#############aa#########################################....",
".....############aa#########################################....",
".....############aa########################################.....",
"......###########aa################aaaaaaaaa###############.....",
".......##########aaaaaaaaaaaaaaaaaaaaaaaaaaaaaaaa#########......",
"........#########aaaaaaaaaaaaaaaaaaaa#####aaaaaaa########.......",
".........##############################################.........",
"..........############################################..........",
"...........##########################################...........",
"............########################################............",
".............######################################.............",
"..............####################################..............",
"...............##################################...............",
"................##############################..................",
".................###########################....................",
"....................######################......................",
"...........................############.........................",
"................................................................"};
